<svg xmlns="http://www.w3.org/2000/svg" width="720" height="460" viewBox="0 0 720 460">
  <defs>
    <linearGradient id="bg" x1="0%" y1="0%" x2="100%" y2="100%">
      <stop offset="0%" style="stop-color:#1a1a2e"/>
      <stop offset="100%" style="stop-color:#16213e"/>
    </linearGradient>
    <filter id="shadow" x="-5%" y="-5%" width="110%" height="115%">
      <feDropShadow dx="0" dy="4" stdDeviation="8" flood-color="#000" flood-opacity="0.4"/>
    </filter>
  </defs>

  <!-- Background -->
  <rect width="720" height="460" rx="16" fill="url(#bg)"/>

  <!-- macOS Menubar -->
  <rect x="20" y="20" width="680" height="36" rx="8" fill="#2a2a3e" filter="url(#shadow)"/>
  <text x="40" y="44" font-family="Menlo,monospace" font-size="14" fill="#00ff88">✦ 20.2% · 40.5%   🤖 12% · 33%</text>
  <text x="560" y="44" font-family="Menlo,monospace" font-size="12" fill="#666">Apr 16 09:15</text>

  <!-- Dropdown Panel -->
  <rect x="20" y="68" width="380" height="370" rx="12" fill="#1e1e32" filter="url(#shadow)" stroke="#333" stroke-width="1"/>

  <!-- Title -->
  <text x="40" y="98" font-family="SF Pro Display,Helvetica,sans-serif" font-size="15" font-weight="bold" fill="#ccc">AI Coding Quota</text>

  <!-- Separator -->
  <line x1="35" y1="110" x2="385" y2="110" stroke="#333" stroke-width="1"/>

  <!-- Claude Section -->
  <text x="40" y="136" font-family="SF Pro Display,Helvetica,sans-serif" font-size="14" font-weight="bold" fill="#ff9966">✦ Claude Code</text>

  <!-- Claude 5h bar -->
  <text x="52" y="162" font-family="Menlo,monospace" font-size="12" fill="#888">5h</text>
  <rect x="82" y="150" width="100" height="14" rx="3" fill="#333"/>
  <rect x="82" y="150" width="20" height="14" rx="3" fill="#00ff88"/>
  <text x="192" y="162" font-family="Menlo,monospace" font-size="12" fill="#00ff88">20.2%</text>

  <!-- Claude Week bar -->
  <text x="52" y="184" font-family="Menlo,monospace" font-size="12" fill="#888">Week</text>
  <rect x="82" y="172" width="100" height="14" rx="3" fill="#333"/>
  <rect x="82" y="172" width="40" height="14" rx="3" fill="#00ff88"/>
  <text x="192" y="184" font-family="Menlo,monospace" font-size="12" fill="#00ff88">40.5%</text>

  <!-- Claude details -->
  <line x1="52" y1="196" x2="260" y2="196" stroke="#444" stroke-width="1"/>
  <text x="52" y="214" font-family="Menlo,monospace" font-size="11" fill="#aaa">5h used: 32.0M · 157.9M · $21.42</text>
  <text x="52" y="232" font-family="Menlo,monospace" font-size="11" fill="#ffaa00">projected: ███████░░░ 74.9%</text>
  <text x="52" y="250" font-family="Menlo,monospace" font-size="11" fill="#aaa">Burn rate: 471.0K/min · remaining 3h3m</text>
  <text x="52" y="268" font-family="Menlo,monospace" font-size="11" fill="#aaa">Models: opus, haiku</text>

  <!-- Separator -->
  <line x1="35" y1="282" x2="385" y2="282" stroke="#333" stroke-width="1"/>

  <!-- Codex Section -->
  <text x="40" y="306" font-family="SF Pro Display,Helvetica,sans-serif" font-size="14" font-weight="bold" fill="#00d488">🤖 Codex · pro plan</text>

  <!-- Codex 5h bar -->
  <text x="52" y="332" font-family="Menlo,monospace" font-size="12" fill="#888">5h</text>
  <rect x="82" y="320" width="100" height="14" rx="3" fill="#333"/>
  <rect x="82" y="320" width="12" height="14" rx="3" fill="#00ff88"/>
  <text x="192" y="332" font-family="Menlo,monospace" font-size="12" fill="#00ff88">12%</text>

  <!-- Codex Week bar -->
  <text x="52" y="354" font-family="Menlo,monospace" font-size="12" fill="#888">Week</text>
  <rect x="82" y="342" width="100" height="14" rx="3" fill="#333"/>
  <rect x="82" y="342" width="33" height="14" rx="3" fill="#00ff88"/>
  <text x="192" y="354" font-family="Menlo,monospace" font-size="12" fill="#00ff88">33%</text>

  <!-- Codex details -->
  <line x1="52" y1="366" x2="260" y2="366" stroke="#444" stroke-width="1"/>
  <text x="52" y="384" font-family="Menlo,monospace" font-size="11" fill="#aaa">5h resets: 2h14m · Week resets: 4d12h</text>
  <text x="52" y="402" font-family="Menlo,monospace" font-size="11" fill="#aaa">Context: ██░░░░░░░░ 18.3%</text>

  <!-- Footer -->
  <line x1="35" y1="416" x2="385" y2="416" stroke="#333" stroke-width="1"/>
  <text x="40" y="438" font-family="SF Pro Display,Helvetica,sans-serif" font-size="11" fill="#555">🔄 Refresh   📊 ccusage   📘 Docs</text>
</svg>
